<?xml version="1.0" encoding="UTF-8" standalone="no"?>
<!-- Created with Inkscape (http://www.inkscape.org/) -->

<svg
   width="512"
   height="512"
   viewBox="0 0 135.46666 135.46667"
   version="1.1"
   id="svg471"
   xmlns="http://www.w3.org/2000/svg"
   xmlns:svg="http://www.w3.org/2000/svg">
  <defs
     id="defs468">
    <marker
       style="overflow:visible"
       id="Arrow1L"
       refX="0"
       refY="0"
       orient="auto-start-reverse"
       markerWidth="11"
       markerHeight="11"
       viewBox="0 0 8.75 5"
       preserveAspectRatio="none"
       markerUnits="userSpaceOnUse">
      <path
         style="fill:context-stroke;fill-rule:evenodd;stroke:none"
         d="M 0,0 5,-5 -12.5,0 5,5 Z"
         id="arrow1L"
         transform="scale(-0.5)" />
    </marker>
  </defs>
  <g
     id="layer1">
    <circle
       style="fill:#ffff00;stroke:#000000;stroke-width:7;stroke-linecap:round;stroke-dasharray:none;stroke-opacity:1"
       id="path1339"
       cx="67.73333"
       cy="67.73333"
       r="25.738585" />
    <path
       style="fill:#ffffff;stroke:#ff0000;stroke-width:4;stroke-linecap:round;stroke-dasharray:none;stroke-opacity:1;marker-end:url(#Arrow1L)"
       d="m 105.82451,67.733333 h 13.8812"
       id="path2368" />
    <path
       style="fill:none;stroke:#ff0000;stroke-width:4;stroke-linecap:round;stroke-dasharray:none;stroke-opacity:1"
       d="m 29.471084,67.733333 h -13.8812"
       id="path2368-9" />
    <path
       style="color:#000000;fill:#ff0000;stroke-linecap:round;-inkscape-stroke:none"
       d="m 67.732422,27.9375 c -21.931875,0 -39.758025,17.802911 -39.794922,39.726562 a 2,2 0 0 0 1.998047,2.003907 2,2 0 0 0 2.001953,-1.996094 C 31.970763,47.907712 47.960062,31.9375 67.732422,31.9375 c 19.792906,0 35.796878,16.002016 35.796878,35.794922 a 2,2 0 0 0 2,2 2,2 0 0 0 2,-2 C 107.5293,45.777758 89.687086,27.9375 67.732422,27.9375 Z"
       id="path1339-2" />
  </g>
</svg>
